<svg xmlns="http://www.w3.org/2000/svg" xmlns:xlink="http://www.w3.org/1999/xlink" width="116.738" height="27.926" viewBox="0 0 116.738 27.926">
  <defs>
    <linearGradient id="linear-gradient" x1="0.5" y1="-0.09" x2="0.5" y2="0.72" gradientUnits="objectBoundingBox">
      <stop offset="0" stop-color="#226af8"/>
      <stop offset="1" stop-color="#3544fc"/>
    </linearGradient>
    <linearGradient id="linear-gradient-2" x1="0.5" y1="0.199" x2="0.5" y2="0.803" xlink:href="#linear-gradient"/>
    <linearGradient id="linear-gradient-3" x1="0.5" y1="-0.07" x2="0.5" y2="0.737" xlink:href="#linear-gradient"/>
    <linearGradient id="linear-gradient-4" x1="0.5" y1="-0.054" x2="0.5" y2="0.569" xlink:href="#linear-gradient"/>
    <linearGradient id="linear-gradient-5" x1="0.5" y1="0.257" x2="0.5" y2="0.882" gradientUnits="objectBoundingBox">
      <stop offset="0" stop-color="#fd6517"/>
      <stop offset="1" stop-color="#fc340c"/>
    </linearGradient>
    <linearGradient id="linear-gradient-6" x1="0.5" y1="0.449" x2="0.5" y2="0.926" xlink:href="#linear-gradient-5"/>
    <linearGradient id="linear-gradient-7" x1="0.5" y1="-1.507" x2="0.5" y2="0.671" xlink:href="#linear-gradient-5"/>
    <linearGradient id="linear-gradient-8" y1="0.5" x2="1" y2="0.5" gradientUnits="objectBoundingBox">
      <stop offset="0" stop-color="#fc5a1b"/>
      <stop offset="1" stop-color="#fb2d13"/>
    </linearGradient>
  </defs>
  <g id="Group_6114" data-name="Group 6114" transform="translate(-358.941 -300.895)">
    <g id="Group_6115" data-name="Group 6115" transform="translate(327.941 54.865)">
      <circle id="Ellipse_369" data-name="Ellipse 369" cx="13.557" cy="13.557" r="13.557" transform="translate(31.484 246.029)" fill="#23c1fd"/>
      <g id="Group_5602" data-name="Group 5602" transform="translate(63.854 250.029)">
        <g id="Group_5409" data-name="Group 5409" transform="translate(0)">
          <path id="Path_4360" data-name="Path 4360" d="M143.669,415.1v.044a6.3,6.3,0,0,1-12.593.042v-.042a6.3,6.3,0,0,1,12.593-.044Zm-3.256.042a3.093,3.093,0,0,0-3.062-3.214,2.983,2.983,0,0,0-3.018,3.171v.044a3.092,3.092,0,0,0,3.061,3.212,2.981,2.981,0,0,0,3.019-3.17Z" transform="translate(-131.076 -404.747)" fill="url(#linear-gradient)"/>
          <path id="Path_4361" data-name="Path 4361" d="M171.02,408.656v6.035a1.693,1.693,0,1,1-3.385,0v-4.967c0-1.6-.757-2.426-2.05-2.426s-2.115.824-2.115,2.426v4.967a1.693,1.693,0,1,1-3.385,0V401.818a1.693,1.693,0,0,1,3.385,0v1a1.7,1.7,0,0,0,2.242,1.6,4.088,4.088,0,0,1,1.255-.188C169.527,404.223,171.02,405.916,171.02,408.656Z" transform="translate(-146.038 -400.127)" fill="url(#linear-gradient-2)"/>
          <path id="Path_4362" data-name="Path 4362" d="M204.9,412.973v6.081a1.693,1.693,0,1,1-3.385,0v-4.967c0-1.6-.713-2.426-1.981-2.426a2.4,2.4,0,0,0-2.545,2.426v4.967a1.693,1.693,0,1,1-3.385,0v-4.967c0-1.6-.713-2.426-1.982-2.426a2.315,2.315,0,0,0-2.432,2.426v4.967a1.693,1.693,0,1,1-3.385,0V410.5a1.693,1.693,0,0,1,3.059-1,.692.692,0,0,0,1.032.147,5.248,5.248,0,0,1,3.2-1.064,3.85,3.85,0,0,1,2.5.82,1.619,1.619,0,0,0,1.98.038,6.411,6.411,0,0,1,3.294-.858C203.389,408.586,204.9,410.1,204.9,412.973Z" transform="translate(-159.306 -404.49)" fill="url(#linear-gradient-3)"/>
          <path id="Path_4363" data-name="Path 4363" d="M240.784,410.813v7.239a6.405,6.405,0,0,1-1.515,4.7c-1.114,1.114-2.829,1.6-5.145,1.6a11.819,11.819,0,0,1-3.892-.643,1.374,1.374,0,1,1,.945-2.579,7.567,7.567,0,0,0,2.858.527,3.312,3.312,0,0,0,2.8-1.073.787.787,0,0,0-.924-1.183,6.991,6.991,0,0,1-2.361.364,5.243,5.243,0,0,1-5.3-5.567v-.046a5.256,5.256,0,0,1,5.3-5.569c.1,0,.2.013.306.022a.07.07,0,0,0-.011-.013,4.665,4.665,0,0,1,2.855,1.039.694.694,0,0,0,1-.181,1.575,1.575,0,0,1,1.881-.525A2,2,0,0,1,240.784,410.813Zm-3.463,3.343a2.789,2.789,0,0,0-5.57,0v.042a2.613,2.613,0,0,0,2.774,2.647,2.644,2.644,0,0,0,2.8-2.647Z" transform="translate(-181.195 -404.49)" fill="url(#linear-gradient-4)"/>
          <path id="Path_4364" data-name="Path 4364" d="M266.978,419.967a5.994,5.994,0,0,1-3.618,1.045,6.1,6.1,0,0,1-6.215-6.171V414.8a6.131,6.131,0,0,1,6.26-6.216,6.339,6.339,0,0,1,3.382.835,1.525,1.525,0,0,1,.3,2.337,1.541,1.541,0,0,1-1.957.231,3.149,3.149,0,0,0-1.748-.485,3.052,3.052,0,0,0-2.9,3.252v.046a3.058,3.058,0,0,0,3.03,3.3,3.263,3.263,0,0,0,1.815-.528,1.451,1.451,0,0,1,1.824.169l.025.025A1.449,1.449,0,0,1,266.978,419.967Z" transform="translate(-196.102 -404.488)" fill="url(#linear-gradient-5)"/>
          <path id="Path_4365" data-name="Path 4365" d="M292.671,408.656v6.035a1.693,1.693,0,1,1-3.385,0v-4.967c0-1.6-.757-2.426-2.05-2.426s-2.115.824-2.115,2.426v4.967a1.693,1.693,0,1,1-3.385,0V401.818a1.693,1.693,0,0,1,3.385,0v1a1.7,1.7,0,0,0,2.242,1.6,4.088,4.088,0,0,1,1.255-.188C291.179,404.223,292.671,405.916,292.671,408.656Z" transform="translate(-208.787 -400.127)" fill="url(#linear-gradient-6)"/>
          <path id="Path_4366" data-name="Path 4366" d="M255.855,427.1a2.7,2.7,0,0,1-2.7,2.7h-.068a2.7,2.7,0,0,1,0-5.394h.068A2.7,2.7,0,0,1,255.855,427.1Z" transform="translate(-192.622 -412.649)" fill="#fff"/>
          <path id="Path_4367" data-name="Path 4367" d="M255.915,428.074a1.782,1.782,0,0,1-1.782,1.783h-.045a1.783,1.783,0,0,1,0-3.566h.045A1.782,1.782,0,0,1,255.915,428.074Z" transform="translate(-193.607 -413.622)" fill="url(#linear-gradient-7)"/>
        </g>
      </g>
      <path id="Path_4179" data-name="Path 4179" d="M121.014,406.408" transform="translate(-64.407 -146.379)" fill="#faba9a"/>
      <g id="Group_5603" data-name="Group 5603" transform="translate(31 246.029)">
        <path id="Path_4392" data-name="Path 4392" d="M103.975,386.043a6,6,0,0,0-1.677-.206c-.421,0-.851.026-1.267.051h-.012c-.219.013-.446.027-.667.036-1.368.057-2.768.086-4.16.086l-.957,0-.122-.059a.927.927,0,0,0-.376-.093c-.087,0-.173,0-.259,0a8.118,8.118,0,0,0-1.622.162l-1.2.245.551-1.1c.109-.217.217-.438.32-.656.137-.287.421-.884.306-1.142l-.007-.016-.006-.016a.172.172,0,0,0-.03-.047l-.279-.36.274-.364a5.46,5.46,0,0,0,.745-1.486.177.177,0,0,0-.056-.214l-.184-.143-.039-.231a.2.2,0,0,0-.012-.044.272.272,0,0,0-.128-.127l-.619-.328.421-.559a14.326,14.326,0,0,1,3.181-3.214l.016-.01a4.365,4.365,0,0,1,2.3-.683,4.444,4.444,0,0,1,1.374.228l.022.007a7.814,7.814,0,0,1,4.047,3.574l.346.54-.563.307a.331.331,0,0,0-.112.094,1.525,1.525,0,0,0-.1,1.022l0,.018a3.182,3.182,0,0,0,.7,1.388l.269.341-.241.361a.511.511,0,0,0-.057.112l-.016.045-.023.041a.451.451,0,0,0,.051.524,3.486,3.486,0,0,1,.6,1.159l.375,1.091Z" transform="translate(-84.396 -372.162)"/>
        <path id="Path_4393" data-name="Path 4393" d="M94.437,380.572a.793.793,0,0,1,.048.169.774.774,0,0,1,.253.884,6,6,0,0,1-.832,1.648.747.747,0,0,1,.117.2,2.178,2.178,0,0,1-.311,1.641q-.161.341-.326.669a8.764,8.764,0,0,1,1.742-.174c.092,0,.186,0,.279.005a1.524,1.524,0,0,1,.616.152l.819,0c1.389,0,2.78-.029,4.136-.086.22-.009.443-.023.668-.036.432-.026.869-.052,1.3-.052a6.572,6.572,0,0,1,1.845.23,2.893,2.893,0,0,0-.494-.967,1.046,1.046,0,0,1-.117-1.2,1.082,1.082,0,0,1,.122-.243,3.8,3.8,0,0,1-.816-1.653,2.118,2.118,0,0,1,.2-1.495.922.922,0,0,1,.309-.268,7.232,7.232,0,0,0-3.721-3.326,3.648,3.648,0,0,0-3.212.386,13.929,13.929,0,0,0-3.031,3.075A.853.853,0,0,1,94.437,380.572Z" transform="translate(-85.046 -372.52)" fill="#ffbb98"/>
        <path id="Path_4394" data-name="Path 4394" d="M112.092,382.992a1.978,1.978,0,0,1,1.164-.393,1.87,1.87,0,0,1,1.137.392l.014.011a1.708,1.708,0,0,1,.664,1.53l0,.043-.284,1.119-.839-.451-.085-.047.1-.188h0l-.111.184-.087-.047-.3-.166a6.8,6.8,0,0,0-1.034-.494l-.313-.105-.127-.294-.017-.027c-.021-.033-.049-.079-.078-.134l-.286-.549Z" transform="translate(-91.879 -374.818)"/>
        <path id="Path_4395" data-name="Path 4395" d="M114.683,384.933c-.1-.052-.2-.106-.295-.16a7.367,7.367,0,0,0-1.154-.547c-.03-.071-.077-.131-.112-.2a1.153,1.153,0,0,1,1.391.007.962.962,0,0,1,.384.879l-.031.119Z" transform="translate(-92.448 -375.266)" fill="#f9957c"/>
        <path id="Path_4396" data-name="Path 4396" d="M90.7,382.749a1.981,1.981,0,0,0-1.164-.393,1.869,1.869,0,0,0-1.136.392l-.014.011a1.709,1.709,0,0,0-.664,1.53l0,.044.284,1.118.839-.451.086-.047-.1-.188h0l.111.184.087-.047.3-.166a6.858,6.858,0,0,1,1.034-.494l.314-.1.127-.294.017-.027c.021-.033.049-.079.077-.134l.286-.549Z" transform="translate(-82.918 -374.727)"/>
        <path id="Path_4397" data-name="Path 4397" d="M97.58,377.561a4.409,4.409,0,0,1,3.568-.391,6.425,6.425,0,0,1,2.831,1.769A6.194,6.194,0,0,0,101,376.68a3.648,3.648,0,0,0-3.212.386,12.189,12.189,0,0,0-2.47,2.362A11.775,11.775,0,0,1,97.58,377.561Z" transform="translate(-85.773 -372.52)" fill="#ffe3d0"/>
        <path id="Path_4398" data-name="Path 4398" d="M93.711,389.4q-.161.341-.326.669a8.764,8.764,0,0,1,1.742-.174c.092,0,.186,0,.279.005a1.524,1.524,0,0,1,.616.152l.819,0c1.389,0,2.78-.029,4.136-.086.22-.009.443-.023.668-.036.432-.026.869-.052,1.3-.052a6.57,6.57,0,0,1,1.845.23,2.893,2.893,0,0,0-.494-.967,1.046,1.046,0,0,1-.117-1.2c.007-.021.021-.04.031-.061a10.943,10.943,0,0,1-10.132.486A3.914,3.914,0,0,1,93.711,389.4Z" transform="translate(-85.046 -376.8)" fill="#ff9378"/>
        <path id="Path_4399" data-name="Path 4399" d="M94.077,402.477a3.335,3.335,0,0,1-2.829-1.722,2.543,2.543,0,0,1-1.887.848H89.3a3.339,3.339,0,0,1-2.5-1.219,4.831,4.831,0,0,1-.717-1.2,2.168,2.168,0,0,1-1.178.344,2.278,2.278,0,0,1-.76-.132,2.736,2.736,0,0,1-1.667-2.012c-.1-.368-.174-.739-.232-1.107-.034,0-.069,0-.1,0a2.088,2.088,0,0,1-1.946-1.419,4.051,4.051,0,0,1,.173-2.637,9.158,9.158,0,0,1,1.072-1.944,1.066,1.066,0,0,1-.369-.252,1.156,1.156,0,0,1-.286-.9,3.4,3.4,0,0,1,.667-1.747,10.463,10.463,0,0,1,3.195-2.661c.336-.2.711-.415,1.178-.662.1-.052.2-.106.294-.159a7.545,7.545,0,0,1,1.137-.543,3.118,3.118,0,0,1,.814-1.1.85.85,0,0,1,.564-.215.9.9,0,0,1,.822.557.845.845,0,0,1,.048.164.8.8,0,0,1,.254.911,6.045,6.045,0,0,1-.821,1.637.777.777,0,0,1,.1.175,2.212,2.212,0,0,1-.3,1.679l-.009.018c-.089.188-.184.384-.29.6a8.923,8.923,0,0,1,1.684-.161c.093,0,.187,0,.281,0a1.558,1.558,0,0,1,.622.152q.4,0,.809,0c1.391,0,2.782-.029,4.137-.086.219-.009.437-.022.667-.036.426-.025.866-.051,1.306-.051a6.676,6.676,0,0,1,1.8.214,2.758,2.758,0,0,0-.469-.9,1.08,1.08,0,0,1-.123-1.227,1.138,1.138,0,0,1,.114-.229,3.814,3.814,0,0,1-.808-1.642,2.065,2.065,0,0,1,.2-1.525.939.939,0,0,1,.632-.386.834.834,0,0,1,.147-.013c.714,0,1.149.871,1.153.879a2.846,2.846,0,0,1,.127.329,1.269,1.269,0,0,0,.109.267,2.125,2.125,0,0,0,.867.487c.13.051.253.1.369.152.167.076.334.151.5.226a12.129,12.129,0,0,1,2.84,1.589A4.5,4.5,0,0,1,107.4,388.9a1.375,1.375,0,0,1-.738,1.394,11.393,11.393,0,0,1,.722,1.1c1.041,1.8.845,3.8-.446,4.546a2.047,2.047,0,0,1-1.035.27h0c-.06,0-.121,0-.181-.007,0,1.944-1.1,3.354-2.606,3.354a2.019,2.019,0,0,1-1.114-.339,3.512,3.512,0,0,1-3.141,2.339,3.11,3.11,0,0,1-1.992-.747A3.33,3.33,0,0,1,94.077,402.477Z" transform="translate(-80.043 -374.551)"/>
        <path id="Path_4400" data-name="Path 4400" d="M89.123,384.69c.1-.052.2-.106.295-.16a7.388,7.388,0,0,1,1.153-.547c.031-.071.077-.13.113-.2a1.154,1.154,0,0,0-1.391.008.961.961,0,0,0-.384.879l.031.118Z" transform="translate(-83.366 -375.175)" fill="#f9957c"/>
        <path id="Path_4401" data-name="Path 4401" d="M94.486,402.2a2.837,2.837,0,0,1-2.533-1.974.291.291,0,0,0-.266-.192.252.252,0,0,0-.238.169,1.8,1.8,0,0,1-1.694,1.123h-.045a2.641,2.641,0,0,1-1.969-.971,4.662,4.662,0,0,1-.8-1.522.278.278,0,0,0-.26-.2.342.342,0,0,0-.237.109l-.006.006a1.508,1.508,0,0,1-1.119.5,1.6,1.6,0,0,1-.533-.093,2.094,2.094,0,0,1-1.233-1.541,10.429,10.429,0,0,1-.265-1.369.312.312,0,0,0-.312-.3.438.438,0,0,0-.129.021,1.278,1.278,0,0,1-.292.034,1.386,1.386,0,0,1-1.3-.963,3.372,3.372,0,0,1,.165-2.164,9.109,9.109,0,0,1,1.33-2.254.342.342,0,0,0,.079-.363.277.277,0,0,0-.264-.149h-.012l-.081,0a.659.659,0,0,1-.489-.147.507.507,0,0,1-.1-.388,2.726,2.726,0,0,1,.541-1.392,9.885,9.885,0,0,1,2.994-2.474c.324-.2.687-.4,1.143-.643l.3-.164a5.8,5.8,0,0,1,1.25-.563l.078-.021.026-.076a2.45,2.45,0,0,1,.717-1.07.173.173,0,0,1,.116-.047.218.218,0,0,1,.189.13.119.119,0,0,1-.035.141l0,.221.124.039.03,0a.2.2,0,0,1,.16.072.129.129,0,0,1,.009.123,4.937,4.937,0,0,1-.862,1.629.41.41,0,0,0,.081.576.534.534,0,0,1,.071.09l0,.008c.116.262-.149.822-.292,1.122l-.009.019c-.176.373-.379.779-.639,1.278l0,.009a.353.353,0,0,0-.006.347.279.279,0,0,0,.242.12.433.433,0,0,0,.119-.017,8.3,8.3,0,0,1,2.3-.327c.086,0,.173,0,.259,0a.866.866,0,0,1,.436.133l.043.028.051,0c.027,0,.055,0,.084,0,.284,0,.562,0,.84,0,1.4,0,2.8-.029,4.166-.086.224-.009.456-.023.679-.036.416-.024.845-.05,1.265-.05a4.917,4.917,0,0,1,2.279.444.587.587,0,0,0,.229.058.239.239,0,0,0,.2-.09.282.282,0,0,0,.032-.257l0-.009,0-.009c-.074-.185-.137-.374-.2-.557a3.988,3.988,0,0,0-.684-1.39.4.4,0,0,1-.029-.488l.011-.018.006-.021a.46.46,0,0,1,.194-.26.245.245,0,0,0,.122-.168.229.229,0,0,0-.053-.187,3.635,3.635,0,0,1-.919-1.644,1.466,1.466,0,0,1,.086-1,.248.248,0,0,1,.182-.111h.007l.008,0a.153.153,0,0,1,.03,0c.2,0,.469.347.536.49a2.279,2.279,0,0,1,.1.253,1.745,1.745,0,0,0,.189.429,2.456,2.456,0,0,0,1.184.742c.122.048.237.093.337.139.169.077.337.152.507.228a11.472,11.472,0,0,1,2.686,1.495,3.805,3.805,0,0,1,1.744,2.577c.019.508-.189.783-.618.817-.135.009-.373.051-.433.228a.275.275,0,0,0,.1.3,10.169,10.169,0,0,1,1.022,1.467c.836,1.447.747,3.067-.2,3.612a1.365,1.365,0,0,1-.693.179h0a1.921,1.921,0,0,1-.6-.1.231.231,0,0,0-.247.071.262.262,0,0,0-.046.222,4.7,4.7,0,0,1,.026.484c0,1.547-.809,2.671-1.923,2.671a1.505,1.505,0,0,1-1.1-.537l-.009-.009a.279.279,0,0,0-.191-.079.3.3,0,0,0-.28.233,2.971,2.971,0,0,1-2.674,2.391,2.507,2.507,0,0,1-1.8-.821.362.362,0,0,0-.625.149A2.735,2.735,0,0,1,94.486,402.2Z" transform="translate(-80.452 -374.961)" fill="#eee"/>
        <g id="Group_5414" data-name="Group 5414" transform="translate(6.998 17.198)">
          <path id="Path_4402" data-name="Path 4402" d="M104.985,398.221a1.7,1.7,0,0,1-.174.016,1.514,1.514,0,0,1-.752-.191,1.385,1.385,0,0,1-.765.376,1.406,1.406,0,0,1-1.279.708,1.671,1.671,0,0,1-.359-.038,2.125,2.125,0,0,1-1.341-.883,1.446,1.446,0,0,1-.394.117,1.407,1.407,0,0,1-1.159,1.059,1.8,1.8,0,0,1-2.157-.744,1.478,1.478,0,0,1-.509-.8,2.949,2.949,0,0,1-.651.732,1.542,1.542,0,0,1-2.7-.592c-.134-.059-.2-.229-.3-.32a1.818,1.818,0,0,1-.851.179h-.028a2.337,2.337,0,0,1-.322-.018,14.409,14.409,0,0,0,.876,3.924c.22.428.984,1.959,4.434,2.177.459.029,3.271.023,3.839-.034,3.092-.311,3.8-1.733,4.012-2.143a8.609,8.609,0,0,0,.695-3.431A1.289,1.289,0,0,1,104.985,398.221Z" transform="translate(-91.241 -397.666)"/>
          <path id="Path_4403" data-name="Path 4403" d="M103.533,406.468a1.63,1.63,0,0,0-.8-1.622,1.58,1.58,0,0,0-1.7.279c-.028.029-.055.059-.079.089a1.229,1.229,0,0,0-.271-.281,1.476,1.476,0,0,0-1.307-.193,1.208,1.208,0,0,0-.807.954,3.85,3.85,0,0,0-.007.715c0,.024,0,.048,0,.072.231.031.476.056.737.072.459.029,3.271.023,3.839-.034C103.268,406.5,103.4,406.486,103.533,406.468Zm-3.809-.392c-.019-.037-.025-.085,0,0Z" transform="translate(-93.978 -400.291)" fill="url(#linear-gradient-8)"/>
        </g>
        <path id="Path_4404" data-name="Path 4404" d="M96.915,397.551a3.173,3.173,0,0,1-1.989-.809,2.019,2.019,0,0,1-.408-.49.15.15,0,0,0-.116-.076h-.016a.153.153,0,0,0-.113.051,2.457,2.457,0,0,1-1.712,1,1.342,1.342,0,0,1-.212-.018c-.8-.131-1.284-.978-1.5-1.471a.152.152,0,0,0-.139-.091.148.148,0,0,0-.056.011,3.853,3.853,0,0,1-1.416.317,1.927,1.927,0,0,1-1.125-.333,3.076,3.076,0,0,1-1.061-2.054,6.688,6.688,0,0,1-.068-1.468.161.161,0,0,1,.153-.149h.015a.163.163,0,0,1,.152.174c-.008.1-.174,2.419.993,3.232a1.621,1.621,0,0,0,.945.274,3.851,3.851,0,0,0,1.571-.416.157.157,0,0,1,.067-.014.172.172,0,0,1,.066.013.159.159,0,0,1,.087.1c0,.014.469,1.41,1.371,1.557a.952.952,0,0,0,.153.013c.561,0,1.189-.463,1.866-1.376a.161.161,0,0,1,.2-.049.161.161,0,0,1,.085.188c-.061.221.1.533.434.832a2.881,2.881,0,0,0,1.777.726,1.474,1.474,0,0,0,.535-.094,1.617,1.617,0,0,0,.894-1.522.161.161,0,0,1,.129-.143l.028,0a.164.164,0,0,1,.146.084c.074.136.749,1.314,1.7,1.371h.053c.549,0,1.071-.362,1.594-1.106a.158.158,0,0,1,.13-.069.156.156,0,0,1,.053.009,3.292,3.292,0,0,0,1.067.186,2.4,2.4,0,0,0,1.466-.469,3.237,3.237,0,0,0,1.022-2.921.162.162,0,0,1,.151-.171h.007a.169.169,0,0,1,.162.151,3.46,3.46,0,0,1-1.148,3.2,2.711,2.711,0,0,1-1.66.534,3.555,3.555,0,0,1-.959-.137.135.135,0,0,0-.041-.006.152.152,0,0,0-.121.059,2.243,2.243,0,0,1-1.706,1.063c-.031,0-.062,0-.094,0a2.327,2.327,0,0,1-1.541-.933.151.151,0,0,0-.117-.055l-.028,0a.152.152,0,0,0-.116.1,1.634,1.634,0,0,1-.954,1.076,1.806,1.806,0,0,1-.656.116Z" transform="translate(-82.64 -378.334)" fill="#00040a"/>
        <g id="Group_5415" data-name="Group 5415" transform="translate(10.32 10.808)">
          <ellipse id="Ellipse_354" data-name="Ellipse 354" cx="3.635" cy="2.805" rx="3.635" ry="2.805" fill="#00040a"/>
          <ellipse id="Ellipse_355" data-name="Ellipse 355" cx="3.142" cy="2.347" rx="3.142" ry="2.347" transform="translate(0.494 0.458)" fill="#ff8378"/>
          <path id="Path_4405" data-name="Path 4405" d="M100.489,391.823a3.5,3.5,0,0,0,3.137-1.425c-.087-1.238-1.458-2.222-3.137-2.222s-3.05.984-3.137,2.222A3.5,3.5,0,0,0,100.489,391.823Z" transform="translate(-96.854 -387.718)" fill="#ff9d8f"/>
          <ellipse id="Ellipse_356" data-name="Ellipse 356" cx="1.463" cy="0.717" rx="1.463" ry="0.717" transform="translate(2.172 0.848)" fill="#fff"/>
        </g>
        <g id="Group_5417" data-name="Group 5417" transform="translate(8.345 4.761)">
          <path id="Path_4406" data-name="Path 4406" d="M101.316,378.857a2.4,2.4,0,0,0-1.991,1.032,3.035,3.035,0,1,0-.162,2.231,2.391,2.391,0,0,0,2.153,1.308,2.288,2.288,0,1,0,0-4.571Z" transform="translate(-93.396 -377.766)" fill="#070707"/>
          <g id="Group_5416" data-name="Group 5416" transform="translate(0.407 0.406)">
            <ellipse id="Ellipse_357" data-name="Ellipse 357" cx="2.619" cy="2.619" rx="2.619" ry="2.619" transform="translate(0)" fill="#fff"/>
            <path id="Path_4407" data-name="Path 4407" d="M99.283,381.368a2.8,2.8,0,0,0-2.771-1.81,3.068,3.068,0,0,0-2.286.956,2.618,2.618,0,1,0,5.059.949C99.285,381.431,99.283,381.4,99.283,381.368Z" transform="translate(-94.048 -378.844)" fill="#cbf1ff"/>
            <ellipse id="Ellipse_358" data-name="Ellipse 358" cx="0.339" cy="0.339" rx="0.339" ry="0.339" transform="translate(3.593 2.604)" fill="#070707"/>
            <ellipse id="Ellipse_359" data-name="Ellipse 359" cx="2" cy="1.884" rx="2" ry="1.884" transform="translate(5.499 1.015)" fill="#fff"/>
            <path id="Path_4408" data-name="Path 4408" d="M102.92,381.867a1.786,1.786,0,0,0-.073.5,2,2,0,0,0,4,0,1.786,1.786,0,0,0-.082-.535,3.283,3.283,0,0,0-3.846.032Z" transform="translate(-97.348 -379.471)" fill="#cbf1ff"/>
            <ellipse id="Ellipse_360" data-name="Ellipse 360" cx="0.339" cy="0.339" rx="0.339" ry="0.339" transform="translate(6.387 2.604)" fill="#070707"/>
          </g>
        </g>
        <path id="Path_4409" data-name="Path 4409" d="M105.669,374.4a.548.548,0,0,1-.407-.181,2.636,2.636,0,0,0-1.753-.741.584.584,0,0,1-.524-.658,2.926,2.926,0,0,1,.6-1.575,1.075,1.075,0,0,1,.811-.3,2.258,2.258,0,0,1,.234.014l.023,0c.528.039,1.095.151,1.169.986.049.032.1.063.16.1a1.06,1.06,0,0,1,.674,1.114,1.759,1.759,0,0,1-.446.9c-.032.039-.064.079-.08.1a.55.55,0,0,1-.456.242Z" transform="translate(-88.644 -370.445)"/>
        <path id="Path_4410" data-name="Path 4410" d="M97.139,373.791a.558.558,0,0,1-.464-.246c-.018-.026-.051-.068-.088-.111a1.836,1.836,0,0,1-.471-.951,1.11,1.11,0,0,1,.707-1.162c.065-.037.128-.072.185-.111.08-.958.794-1.011,1.226-1.042l.025,0a2.28,2.28,0,0,1,.248-.015,1.124,1.124,0,0,1,.847.316,3.111,3.111,0,0,1,.629,1.668.6.6,0,0,1-.534.671,2.847,2.847,0,0,0-1.9.8.561.561,0,0,1-.414.184Z" transform="translate(-86.067 -370.149)"/>
        <path id="Path_4411" data-name="Path 4411" d="M105.755,372.495a.268.268,0,0,1-.1-.2c-.027-.546-.259-.622-.78-.661a.905.905,0,0,0-.731.158,2.67,2.67,0,0,0-.479,1.334.16.16,0,0,0,.143.179,3.042,3.042,0,0,1,2.028.879.124.124,0,0,0,.194-.014,1.778,1.778,0,0,0,.457-.818C106.549,372.821,106.1,372.754,105.755,372.495Z" transform="translate(-88.9 -370.701)" fill="#fff"/>
        <path id="Path_4412" data-name="Path 4412" d="M99.3,371.017a.971.971,0,0,0-.781-.169c-.559.041-.807.124-.836.708a.284.284,0,0,1-.111.212c-.372.277-.849.349-.779.918a1.9,1.9,0,0,0,.489.876.132.132,0,0,0,.208.015,3.261,3.261,0,0,1,2.171-.941.17.17,0,0,0,.152-.191A2.852,2.852,0,0,0,99.3,371.017Z" transform="translate(-86.323 -370.405)" fill="#fff"/>
      </g>
      <path id="Path_4429" data-name="Path 4429" d="M133.09,396.142" transform="translate(-66.32 -136.114)"/>
    </g>
  </g>
</svg>
